# xmcd
#
# Track frame offsets:
#	150
#	13621
#	27806
#	38512
#	51002
#	63784
#	75906
#	88590
#	101963
#	116107
#	127127
#	140300
#
# Disc length: 2037 seconds
#
# Revision: 1
# Processed by: cddbd v1.5.2PL0 Copyright (c) Steve Scherf et al.
# Submitted via: audiograbber 1.83.01
#
DISCID=9207f30c
DTITLE=Alastair Coyles - My Dream Come True
DYEAR=1900
DGENRE=
TTITLE0=Tipperary On My Mind
TTITLE1=Crystal Chandeliers
TTITLE2=World Of Our Own
TTITLE3=Blackboard Of My Heart
TTITLE4=Bed Of Roses
TTITLE5=Heaven Holds All My Treasures
TTITLE6=Back In County Antrim
TTITLE7=Bright Silvery Light Of The Moon
TTITLE8=Sing Me Back Home
TTITLE9=Pretty Little Girl From Omagh
TTITLE10=Could I Have This Dance For The Rest Of My Life
TTITLE11=Don't Let Me Cross Over
EXTD=
EXTT0=
EXTT1=
EXTT2=
EXTT3=
EXTT4=
EXTT5=
EXTT6=
EXTT7=
EXTT8=
EXTT9=
EXTT10=
EXTT11=
PLAYORDER=
